<mxfile host="app.diagrams.net" modified="2024-03-12T18:26:21.097Z" agent="Mozilla/5.0 (Macintosh; Intel Mac OS X 10.15; rv:123.0) Gecko/20100101 Firefox/123.0" etag="rTwuFtHmRxph681E3wbg" version="24.0.5" type="github">
  <diagram name="Page-1" id="TKecJ74i1THWGVXfQWML">
    <mxGraphModel dx="954" dy="589" grid="1" gridSize="10" guides="1" tooltips="1" connect="1" arrows="1" fold="1" page="1" pageScale="1" pageWidth="827" pageHeight="1169" math="0" shadow="0">
      <root>
        <mxCell id="0" />
        <mxCell id="1" parent="0" />
        <mxCell id="Uom78CrkvAnSeXXXstYl-9" style="edgeStyle=orthogonalEdgeStyle;rounded=0;orthogonalLoop=1;jettySize=auto;html=1;exitX=0.5;exitY=1;exitDx=0;exitDy=0;" edge="1" parent="1" source="Uom78CrkvAnSeXXXstYl-2" target="Uom78CrkvAnSeXXXstYl-4">
          <mxGeometry relative="1" as="geometry" />
        </mxCell>
        <mxCell id="Uom78CrkvAnSeXXXstYl-2" value="&lt;div&gt;Content Streaming Service&lt;/div&gt;&lt;div&gt;Go&lt;br&gt;&lt;/div&gt;" style="rounded=1;whiteSpace=wrap;html=1;" vertex="1" parent="1">
          <mxGeometry x="320" y="220" width="120" height="60" as="geometry" />
        </mxCell>
        <mxCell id="Uom78CrkvAnSeXXXstYl-3" value="&lt;div&gt;UI&lt;/div&gt;&lt;div&gt;ReactJS&lt;br&gt;&lt;/div&gt;" style="rounded=1;whiteSpace=wrap;html=1;" vertex="1" parent="1">
          <mxGeometry x="320" y="40" width="120" height="60" as="geometry" />
        </mxCell>
        <mxCell id="Uom78CrkvAnSeXXXstYl-4" value="&lt;div&gt;Music Database&lt;/div&gt;&lt;div&gt;PostgreSQL&lt;br&gt;&lt;/div&gt;" style="rounded=1;whiteSpace=wrap;html=1;" vertex="1" parent="1">
          <mxGeometry x="320" y="360" width="120" height="60" as="geometry" />
        </mxCell>
        <mxCell id="Uom78CrkvAnSeXXXstYl-5" value="" style="endArrow=classic;startArrow=classic;html=1;rounded=0;entryX=0.5;entryY=1;entryDx=0;entryDy=0;exitX=0.5;exitY=0;exitDx=0;exitDy=0;" edge="1" parent="1" source="Uom78CrkvAnSeXXXstYl-2" target="Uom78CrkvAnSeXXXstYl-3">
          <mxGeometry width="50" height="50" relative="1" as="geometry">
            <mxPoint x="350" y="250" as="sourcePoint" />
            <mxPoint x="400" y="200" as="targetPoint" />
          </mxGeometry>
        </mxCell>
        <mxCell id="Uom78CrkvAnSeXXXstYl-11" value="SQL Queries" style="rounded=1;whiteSpace=wrap;html=1;" vertex="1" parent="1">
          <mxGeometry x="390" y="300" width="70" height="30" as="geometry" />
        </mxCell>
        <mxCell id="Uom78CrkvAnSeXXXstYl-17" value="gRPC calls" style="rounded=1;whiteSpace=wrap;html=1;" vertex="1" parent="1">
          <mxGeometry x="390" y="140" width="70" height="30" as="geometry" />
        </mxCell>
        <mxCell id="Uom78CrkvAnSeXXXstYl-18" value="Actor" style="shape=umlActor;verticalLabelPosition=bottom;verticalAlign=top;html=1;outlineConnect=0;" vertex="1" parent="1">
          <mxGeometry x="500" y="40" width="30" height="60" as="geometry" />
        </mxCell>
        <mxCell id="Uom78CrkvAnSeXXXstYl-22" value="" style="endArrow=classic;html=1;rounded=0;entryX=1;entryY=0.5;entryDx=0;entryDy=0;" edge="1" parent="1" source="Uom78CrkvAnSeXXXstYl-18" target="Uom78CrkvAnSeXXXstYl-3">
          <mxGeometry width="50" height="50" relative="1" as="geometry">
            <mxPoint x="620" y="50" as="sourcePoint" />
            <mxPoint x="400" y="230" as="targetPoint" />
          </mxGeometry>
        </mxCell>
      </root>
    </mxGraphModel>
  </diagram>
</mxfile>
